<svg version="1.1" id="Layer_1" xmlns="http://www.w3.org/2000/svg" x="0" y="0" viewBox="0 0 512 512" xml:space="preserve"><style>.st0{fill:#ffdf00}.st1{fill:#a2260b}.st2{fill:none}</style><script/><path class="st0" d="M238.3 142.3h7.7v7.7l10-10 10 10v-7.7h7.7l-10-10 10-10H266v-7.7l-10 10-10-10v7.7h-7.7l10 10zm86.9 40.5 10-9.9 9.9 9.9v-7.7h7.8l-10-10 10-9.9h-7.8v-7.8l-9.9 10-10-10v7.8h-7.8l10 9.9-10 10h7.8zm-158.4 0 10-9.9 10 9.9v-7.7h7.7l-9.9-10 9.9-10h-7.7v-7.7l-10 10-10-10v7.7h-7.7l10 10-10 10h7.7z"/><path class="st1" d="m273.7 261.3 20.9-20.9 13.5 13.6-7.7 7.7-3.9-3.9 3.9-3.8-5.8-5.8-9.6 9.6 17.3 17.4 11.6-11.6v-15.4l-19.3-19.3-29 29v92.2H512V342H273.7zm-48.6-113.6h15.4v15.4l15.4-15.4 15.4 15.4v-15.4h15.4l-15.4-15.4 15.4-15.4h-15.4v-15.4L256 116.8l-15.4-15.4v15.4h-15.4l15.4 15.4zm13.2-25.4h7.7v-7.7l10 10 10-10v7.7h7.7l-10 10 10 10H266v7.7l-10-10-10 10v-7.7h-7.7l10-10zm-61.5 58.3 15.4 15.4v-15.4h15.4l-15.4-15.4 15.4-15.4h-15.4v-15.4l-15.4 15.4-15.4-15.4v15.4H146l15.4 15.4-15.4 15.4h15.4V196zm-17.7-5.5 10-10-10-10h7.7v-7.7l10 10 10-10v7.7h7.7l-10 10 10 10h-7.7v7.7l-10-10-10 10v-7.7zM319.7 196l15.4-15.4 15.4 15.4v-15.4H366l-15.4-15.4 15.4-15.4h-15.4v-15.4l-15.4 15.4-15.4-15.4v15.4h-15.4l15.4 15.4-15.4 15.4h15.4V196zm-2.3-20.9 10-10-10-10h7.7v-7.7l10 10 10-10v7.7h7.7l-10 10 10 10h-7.7v7.7l-10-10-10 10v-7.7zm-129 20.9-23.1 23.2 19.3 19.3H200l13.5-13.5-15.4-15.5-9.7 9.7 5.8 5.8 3.9-3.9 3.8 3.9-7.7 7.7-13.5-13.5 17.4-17.4 48.3 48.4v-11.6L203.9 196z"/><path class="st1" d="m308.1 196-42.5 42.6v11.6l48.3-48.4 17.4 17.4-13.5 13.5-7.7-7.7 3.8-3.9 3.9 3.9 5.8-5.8-9.7-9.7-15.4 15.5 13.5 13.5h15.4l19.3-19.3-23.1-23.2z"/><path class="st2" d="m188.4 196-23.1 23.2 19.3 19.3H200l13.5-13.5-15.4-15.5-9.7 9.7 5.8 5.8 3.9-3.9 3.8 3.9-7.7 7.7-13.5-13.5 17.4-17.4 48.3 48.4v-11.6L203.9 196zm-11.6-15.4 15.5 15.4v-15.4h15.4l-15.4-15.5 15.4-15.4h-15.4v-15.5l-15.5 15.5-15.4-15.5v15.5h-15.5l15.5 15.4-15.5 15.5h15.5V196zm169.9 38.6L323.6 196h-15.5l-42.5 42.6v11.6l48.3-48.4 17.4 17.4-13.5 13.5-7.7-7.7 3.8-3.9 3.9 3.9 5.8-5.8-9.7-9.7-15.4 15.5 13.5 13.5h15.4zm-59.8-102.4h-15.5v-15.4L256 116.8l-15.4-15.4v15.4h-15.5l15.5 15.5-15.5 15.4h15.5v15.5l15.4-15.5 15.4 15.5v-15.5h15.5l-15.5-15.4z"/><path class="st2" d="m176.8 180.6 15.5 15.4v-15.4h15.4l-15.4-15.5 15.4-15.4h-15.4v-15.5l-15.5 15.5-15.4-15.5v15.5h-15.5l15.5 15.4-15.5 15.5h15.5V196zm11.6 15.4-23.1 23.2 19.3 19.3H200l13.5-13.5-15.4-15.5-9.7 9.7 5.8 5.8 3.9-3.9 3.8 3.9-7.7 7.7-13.5-13.5 17.4-17.4 48.3 48.4v-11.6L203.9 196zm131.3-15.4V196l15.5-15.4 15.4 15.4v-15.4H366l-15.4-15.5 15.4-15.4h-15.4v-15.5l-15.4 15.5-15.5-15.5v15.5h-15.4l15.4 15.4-15.4 15.5zm27 38.6L323.6 196h-15.5l-42.5 42.6v11.6l48.3-48.4 17.4 17.4-13.5 13.5-7.7-7.7 3.8-3.9 3.9 3.9 5.8-5.8-9.7-9.7-15.4 15.5 13.5 13.5h15.4zm-59.8-102.4h-15.5v-15.4L256 116.8l-15.4-15.4v15.4h-15.5l15.5 15.5-15.5 15.4h15.5v15.5l15.4-15.5 15.4 15.5v-15.5h15.5l-15.5-15.4z"/><path class="st1" d="M246.4 350.1v-92.2l-29-29-19.3 19.3v15.4l11.6 11.6 17.3-17.4-9.6-9.6-5.8 5.8 3.9 3.8-3.9 3.9-7.7-7.7 13.5-13.6 20.9 20.9V342H0v8.1z"/><path class="st1" d="m260.1 236.3 44.2-44.1v-15.5l-23.2-23.1-19.3 19.3v15.4l13.5 13.5 15.5-15.4-9.7-9.7-5.8 5.8 3.9 3.9-3.9 3.8-7.7-7.7 13.5-13.5 17.4 17.4-42.5 42.5-42.5-42.5 17.4-17.4 13.5 13.5-7.7 7.7-3.9-3.8 3.9-3.9-5.8-5.8-9.7 9.7 15.5 15.4 13.5-13.5v-15.4l-19.3-19.3-23.2 23.1v15.5l44.2 44.1v122H0v68.3h512v-68.3H260.1z"/><path class="st0" d="m300.4 261.7 7.7-7.7-13.5-13.5-20.9 20.9V342H512V85.3H0V342h238.3v-80.7l-20.9-20.9-13.5 13.6 7.7 7.7 3.9-3.9-3.9-3.9 5.8-5.8 9.7 9.7-17.4 17.4-11.6-11.6v-15.4l19.3-19.3 29.1 29.1v92.2H0v8.2h251.9v-122l-44.2-44.2v-15.4l23.2-23.2 19.3 19.3v15.4l-13.5 13.5-15.4-15.4 9.7-9.7 5.8 5.8-3.9 3.9 3.9 3.9 7.7-7.7-13.6-13.6-17.4 17.4 42.5 42.5 42.5-42.5-17.4-17.4-13.5 13.5 7.7 7.7 3.8-3.9-3.8-3.9 5.8-5.8 9.7 9.7-15.5 15.4-13.5-13.5v-15.4l19.3-19.3 23.2 23.2v3.8l15.4-15.4-15.4-15.4h15.4v-15.4l15.4 15.4 15.4-15.4v15.4H366l-15.4 15.4 15.4 15.4h-15.4V196l-15.4-15.4-15.5 15.4v-15.4h-15.4v11.6l-44.2 44.2v122H512v-8.2H265.6V258l29.1-29.1 19.3 19.3v15.4l-11.6 11.6-17.4-17.4 9.6-9.7 5.8 5.8-3.8 3.9zm-154.5-81.1 15.4-15.4-15.4-15.4h15.4v-15.4l15.4 15.4 15.4-15.4v15.4h15.4l-15.4 15.4 15.4 15.4h-15.4V196l-15.4-15.4-15.3 15.4v-15.4zm100.5 58v11.6L198 201.8l-17.4 17.4 13.5 13.5 7.7-7.7-3.9-3.9-3.9 3.9-5.8-5.8 9.7-9.7 15.4 15.4-13.3 13.6h-15.4l-19.3-19.3 23.2-23.2h15.4zm25-90.9v15.4L256 147.7l-15.4 15.4v-15.4h-15.4l15.4-15.4-15.4-15.4h15.4v-15.4l15.4 15.4 15.4-15.4v15.4h15.4l-15.4 15.4 15.4 15.4zm40.6 90.8L298.5 225l15.4-15.4 9.7 9.7-5.8 5.8-3.9-3.9-3.8 3.9 7.7 7.7 13.5-13.5-17.4-17.4-48.4 48.4v-11.6l42.6-42.6h15.5l23.2 23.2-19.3 19.3H312z"/></svg>