<svg xmlns="http://www.w3.org/2000/svg" xml:space="preserve" width="16" height="16" viewBox="0 0 16 16"><path d="M0 2.5h16v11H0z" style="fill:#4d4d4d;stroke-width:.0135401"/><g aria-label="род" style="font-size:10.6667px;fill:#fff"><path d="M12.063 8.769c.051 1.027-.59 2.042-1.552 2.417-1.183.515-2.502.34-3.755.365-.578.002-1.16-.019-1.736.024-.41.109.086.8-.287.787h-.555c-.256-.465-.203-1.218.359-1.429.644-.24 1.344-.088 2.013-.134.931-.011 1.87.054 2.797-.048.785-.124 1.62-.617 1.777-1.455.156-.643.02-1.483-.634-1.797-.463-.22-.988-.158-1.484-.168.017.79.016 1.705-.607 2.288-.732.682-1.839.724-2.767.515-.789-.198-1.463-.897-1.475-1.736-.063-.705.338-1.484 1.054-1.673.344-.04.227-.382.243-.618V3.894h5.927v.765H9.006v1.912c.863-.015 1.857-.021 2.512.635.402.409.555 1.003.545 1.563M8.152 7.33c-.795.018-1.594-.042-2.386.043a.87.87 0 0 0-.728.964c.016.524.442.975.956 1.052.623.147 1.4.109 1.85-.401.365-.469.302-1.102.308-1.658m0-2.672h-1.85V6.57h1.85z" style="-inkscape-font-specification:sans-serif"/></g></svg>