<svg xmlns="http://www.w3.org/2000/svg" xml:space="preserve" width="16" height="16" viewBox="0 0 16 16"><path fill="#4d4d4d" d="M0 2.5h16v11H0z"/><path fill="#fff" d="M9.22 8.402c-.032.533.675.82 1.065.495.315-.245.393-.91.037-1.12-.466-.168-1.11.054-1.103.625Zm-.678-2.016-.27-.61c.917-.025 1.888.333 2.405 1.127.144.393.497.535.809.772.754.607.995 1.681.705 2.584-.253.88-1.042 1.49-1.89 1.754-1.241.391-2.59.406-3.858.132-.937-.21-1.9-.729-2.274-1.663-.347-.844-.242-1.889.387-2.575.56-.643 1.509-1.006 2.34-.736.773.264 1.1 1.322.596 1.97-.494.74-1.758.755-2.213-.032-.207-.238-.15-.78-.17-.902-.687.714-.62 2.024.194 2.62.958.705 2.209.814 3.361.75.916-.074 1.905-.293 2.559-.987.575-.623.517-1.61.048-2.274-.195-.146-.035.532-.234.666-.316.695-1.256.916-1.89.527-.688-.357-.849-1.371-.321-1.934a1.39 1.39 0 0 1 1.2-.46c-.203-.288-.54-.503-.88-.622a2 2 0 0 0-.604-.107M6.438 9.032c.57.003.825-.859.35-1.172-.3-.195-.992-.247-1.032.219-.134.464.167.978.682.953M9.74 4.527H3.96v-.61h5.78zm.521 1.86H7.115v-.61h3.146zm1.307-1.235c.006-.49-.566-.66-.97-.625H8.236v-.61c.893.006 1.786-.012 2.679.01.605.031 1.285.409 1.344 1.069.106.6-.348 1.162-.917 1.303-.583.146-1.19.067-1.785.087-.146.002-.333.046-.264-.166v-.443c.559-.011 1.12.024 1.676-.023.305-.04.62-.265.6-.602z"/></svg>